<svg width="72" height="72" viewBox="0 0 72 72" fill="none" xmlns="http://www.w3.org/2000/svg">
<g id="clock (1) 1" clip-path="url(#clip0_603_421)">
<g id="Group">
<g id="Group_2">
<path id="Vector" d="M21.913 4.69562H14.0869V9.39123H21.913V4.69562Z" fill="#231E22" stroke="#231E22" stroke-width="2"/>
</g>
</g>
<g id="Group_3">
<g id="Group_4">
<path id="Vector_2" d="M14.0872 9.39136H9.3916V14.087H14.0872V9.39136Z" fill="#231E22" stroke="#231E22" stroke-width="2"/>
</g>
</g>
<g id="Group_5">
<g id="Group_6">
<path id="Vector_3" d="M9.39092 14.087H4.69531V21.913H9.39092V14.087Z" fill="#231E22" stroke="#231E22" stroke-width="2"/>
</g>
</g>
<g id="Group_7">
<g id="Group_8">
<path id="Vector_4" d="M9.39092 50.087H4.69531V57.913H9.39092V50.087Z" fill="#231E22" stroke="#231E22" stroke-width="2"/>
</g>
</g>
<g id="Group_9">
<g id="Group_10">
<path id="Vector_5" d="M14.0872 57.913H9.3916V62.6086H14.0872V57.913Z" fill="#231E22" stroke="#231E22" stroke-width="2"/>
</g>
</g>
<g id="Group_11">
<g id="Group_12">
<path id="Vector_6" d="M21.913 62.6086H14.0869V67.3043H21.913V62.6086Z" fill="#231E22" stroke="#231E22" stroke-width="2"/>
</g>
</g>
<g id="Group_13">
<g id="Group_14">
<path id="Vector_7" d="M50.087 0H21.9131V4.69561H50.087V0Z" fill="#231E22" stroke="#231E22" stroke-width="2"/>
</g>
</g>
<g id="Group_15">
<g id="Group_16">
<path id="Vector_8" d="M50.087 67.3044H21.9131V72H50.087V67.3044Z" fill="#231E22" stroke="#231E22" stroke-width="2"/>
</g>
</g>
<g id="Group_17">
<g id="Group_18">
<path id="Vector_9" d="M4.69561 21.913H0V50.087H4.69561V21.913Z" fill="#231E22" stroke="#231E22" stroke-width="2"/>
</g>
</g>
<g id="Group_19">
<g id="Group_20">
<path id="Vector_10" d="M57.913 4.69562H50.0869V9.39123H57.913V4.69562Z" fill="#231E22" stroke="#231E22" stroke-width="2"/>
</g>
</g>
<g id="Group_21">
<g id="Group_22">
<path id="Vector_11" d="M62.6087 9.39136H57.9131V14.087H62.6087V9.39136Z" fill="#231E22" stroke="#231E22" stroke-width="2"/>
</g>
</g>
<g id="Group_23">
<g id="Group_24">
<path id="Vector_12" d="M67.304 14.087H62.6084V21.913H67.304V14.087Z" fill="#231E22" stroke="#231E22" stroke-width="2"/>
</g>
</g>
<g id="Group_25">
<g id="Group_26">
<path id="Vector_13" d="M67.304 50.087H62.6084V57.913H67.304V50.087Z" fill="#231E22" stroke="#231E22" stroke-width="2"/>
</g>
</g>
<g id="Group_27">
<g id="Group_28">
<path id="Vector_14" d="M62.6087 57.913H57.9131V62.6086H62.6087V57.913Z" fill="#231E22" stroke="#231E22" stroke-width="2"/>
</g>
</g>
<g id="Group_29">
<g id="Group_30">
<path id="Vector_15" d="M57.913 62.6086H50.0869V67.3043H57.913V62.6086Z" fill="#231E22" stroke="#231E22" stroke-width="2"/>
</g>
</g>
<g id="Group_31">
<g id="Group_32">
<path id="Vector_16" d="M72.0003 21.913H67.3047V50.087H72.0003V21.913Z" fill="#231E22" stroke="#231E22" stroke-width="2"/>
</g>
</g>
<g id="Group_33">
<g id="Group_34">
<path id="Vector_17" d="M34.4346 9.39136V32.8695H20.3477V37.5652H39.1302V34.4348V9.39136H34.4346Z" fill="#231E22" stroke="#231E22" stroke-width="2"/>
</g>
</g>
</g>
<defs>
<clipPath id="clip0_603_421">
<rect width="72" height="72" fill="white"/>
</clipPath>
</defs>
</svg>
